<?xml version="1.0" encoding="iso-8859-1"?>
<!-- Generator: Adobe Illustrator 19.0.0, SVG Export Plug-In . SVG Version: 6.00 Build 0)  -->
<svg version="1.1" id="Layer_1" xmlns="http://www.w3.org/2000/svg" xmlns:xlink="http://www.w3.org/1999/xlink" x="0px" y="0px"
	 viewBox="0 0 512 512" style="enable-background:new 0 0 512 512;" xml:space="preserve">
<path style="fill:#736056;" d="M422.142,490.152L375.63,346.663c-2.837-8.761-12.25-13.576-21.032-10.729H157.402
	c-8.793-2.826-18.196,1.968-21.032,10.729L89.858,490.152c-1.652,5.087-0.761,10.652,2.381,14.967
	c3.141,4.326,8.163,6.881,13.5,6.881h300.522c5.337,0,10.359-2.554,13.5-6.881C422.902,500.804,423.794,495.239,422.142,490.152z"/>
<path style="fill:#665247;" d="M375.63,346.663c-2.837-8.761-12.25-13.576-21.032-10.729H256V512h150.261
	c5.337,0,10.359-2.554,13.5-6.881c3.141-4.315,4.033-9.88,2.381-14.967L375.63,346.663z"/>
<path style="fill:#E6563A;" d="M256,400.696c-110.467,0-200.348-89.881-200.348-200.348C55.652,89.875,145.533,0,256,0
	s200.348,89.875,200.348,200.348C456.348,310.815,366.467,400.696,256,400.696z"/>
<path style="fill:#D9472B;" d="M456.348,200.348C456.348,89.875,366.467,0,256,0v400.696
	C366.467,400.696,456.348,310.815,456.348,200.348z"/>
<path style="fill:#EDF0F2;" d="M256,333.913c-73.652,0-133.565-59.913-133.565-133.565c0-73.647,59.913-133.565,133.565-133.565
	s133.565,59.918,133.565,133.565C389.565,274,329.652,333.913,256,333.913z"/>
<path style="fill:#DAE1E6;" d="M389.565,200.348c0-73.647-59.913-133.565-133.565-133.565v267.13
	C329.652,333.913,389.565,274,389.565,200.348z"/>
<path style="fill:#E6563A;" d="M256,267.13c-36.826,0-66.783-29.956-66.783-66.783s29.956-66.783,66.783-66.783
	s66.783,29.956,66.783,66.783S292.826,267.13,256,267.13z"/>
<path style="fill:#D9472B;" d="M322.783,200.348c0-36.826-29.956-66.783-66.783-66.783V267.13
	C292.826,267.13,322.783,237.174,322.783,200.348z"/>
<g>
</g>
<g>
</g>
<g>
</g>
<g>
</g>
<g>
</g>
<g>
</g>
<g>
</g>
<g>
</g>
<g>
</g>
<g>
</g>
<g>
</g>
<g>
</g>
<g>
</g>
<g>
</g>
<g>
</g>
</svg>
